<svg width="64" height="64" viewBox="0 0 64 64" fill="none" xmlns="http://www.w3.org/2000/svg">
<g clip-path="url(#clip0)">
<path d="M57.3654 11.5504C55.6553 10.8191 53.6378 10.4392 51.3748 10.4392C49.2471 10.4392 47.3309 10.7844 45.6807 11.4508C45.0149 10.6933 44.116 10.2357 43.1467 10.1619C42.1631 10.0874 41.1991 10.4141 40.4308 11.0819C39.6629 11.7495 39.2009 12.6762 39.1298 13.6914C39.0589 14.7065 39.5369 15.9324 40.2047 16.7003C38.6353 16.5782 36.3453 16.4859 33.6331 16.6368C28.9958 16.8952 22.2358 17.9529 16.2274 21.5014C15.3889 21.5962 12.6463 22.0129 9.61528 23.6208C6.30945 25.3745 2.02713 28.93 0.39975 35.9088C0.0869629 37.2502 -0.864895 41.3318 2.05705 45.8041C2.2517 46.102 2.58314 46.2799 2.93627 46.2799C2.95673 46.2799 2.97732 46.2794 2.99791 46.2781C3.37387 46.2561 3.7092 46.0343 3.87686 45.6973C4.936 43.5684 6.84138 40.4582 8.64046 38.6268C9.615 46.22 13.7059 52.9747 13.9352 53.348C14.1262 53.6591 14.4651 53.8487 14.8302 53.8487H22.6146C23.1294 53.8487 23.5684 53.4756 23.6512 52.9674L24.6385 46.8155C25.4649 45.7801 26.0757 44.507 26.1664 42.9593C27.5367 42.5937 30.3768 41.8633 31.6729 41.7338C34.1439 41.4866 37.0927 42.0208 37.9545 48.3979C38.2964 50.9275 38.2171 52.7303 38.2162 52.7474C38.2023 53.0345 38.3067 53.3148 38.5048 53.5229C38.7031 53.731 38.9779 53.8487 39.2653 53.8487H46.834C47.1546 53.8487 47.4578 53.7022 47.6569 53.4511C50.9296 49.3246 54.517 41.3519 56.3465 34.3674C57.2973 33.4685 58.2542 32.3566 59.1763 31.0611C61.7608 27.4299 63.3039 23.4445 63.3039 20.4004C63.3039 19.1196 63.0601 17.8823 62.5959 16.7435C63.3785 16.281 64.066 14.7067 63.995 13.6916C63.924 12.6765 63.4619 11.7498 62.694 11.0823C61.9257 10.4143 60.962 10.0879 59.9782 10.1622C59.0015 10.2362 58.0326 10.7828 57.3654 11.5504ZM41.5467 20.4003C41.5467 17.5717 43.1364 14.7256 46.5819 13.3652L49.7586 29.8426L42.0412 23.3862C41.7194 22.305 41.5467 21.2902 41.5467 20.4003ZM52.9912 29.8426L56.1734 13.3368C59.8048 14.7332 61.203 17.7306 61.203 20.4003C61.203 21.2901 61.0331 22.3023 60.7164 23.3796L52.9912 29.8426ZM60.116 11.9774C60.6085 11.9401 61.1013 12.1099 61.4995 12.4561C61.9005 12.8046 62.1416 13.2884 62.1787 13.8184C62.2129 14.308 62.0671 14.7818 61.7703 15.1675C61.4305 14.6468 61.0377 14.1579 60.5936 13.7086C60.1248 13.2344 59.6004 12.813 59.0299 12.4392C59.3444 12.1703 59.7202 12.0075 60.116 11.9774ZM51.1628 29.7199L47.9269 12.9354C48.946 12.6809 50.0935 12.5398 51.375 12.5398C52.6716 12.5398 53.8163 12.6772 54.8259 12.9201L51.587 29.7199H51.1628ZM40.946 13.8184C40.983 13.2884 41.2243 12.8046 41.6253 12.4561C42.0235 12.1099 42.5158 11.9401 43.0086 11.9774C43.346 12.003 43.6687 12.1258 43.9517 12.3275C43.3152 12.7263 42.7337 13.1852 42.2146 13.7049C41.8379 14.0819 41.4978 14.4916 41.1924 14.9247C41.0056 14.5905 40.9187 14.2094 40.946 13.8184ZM2.92723 43.0234C1.7572 40.3569 2.06581 38.0138 2.44553 36.3861C3.60109 31.4308 6.32016 27.7732 10.5272 25.5154C11.1117 25.2016 11.6855 24.9393 12.2346 24.7174C10.6359 26.5058 9.53305 28.6203 8.94253 31.0428C8.54362 32.6794 8.40086 34.3623 8.44066 36.0353C6.1909 37.6752 4.09823 40.9605 2.92723 43.0234ZM19.8433 51.748L19.5034 50.336C20.1949 50.07 21.1743 49.6338 22.1704 48.9944L21.7214 51.748H19.8433ZM46.3174 51.748H43.9445L45.4554 47.0661C45.6335 46.514 45.3305 45.9221 44.7785 45.744C44.2267 45.5659 43.6345 45.8689 43.4562 46.421L41.7372 51.7481H40.3218C40.3061 50.908 40.242 49.6388 40.0363 48.1167C39.2108 42.0086 36.3271 39.1571 31.464 39.6436C29.551 39.8348 25.0256 41.091 24.8339 41.1444C24.3561 41.2774 24.0363 41.7267 24.0673 42.2218C24.3526 46.7849 18.0384 48.6235 17.9762 48.641C17.4318 48.7931 17.1053 49.3488 17.2377 49.8984L17.6828 51.7481H15.4348C14.1352 49.443 9.01071 39.6324 10.9833 31.5405C11.8237 28.0931 13.8821 25.3623 17.1013 23.4241C25.2183 18.5375 35.0455 18.4743 39.5925 18.7698C39.4976 19.3065 39.4459 19.8519 39.4459 20.4004C39.4459 23.4351 41.0003 27.421 43.6037 31.0629C44.5943 32.4484 48.082 36.9692 51.3748 36.9692C52.0566 36.9692 52.7995 36.7655 53.5767 36.3805C51.7642 42.1593 48.9171 48.2827 46.3174 51.748ZM57.4646 29.8427C55.3249 32.8487 52.8777 34.8684 51.3748 34.8684C49.9215 34.8684 47.4287 32.801 45.3126 29.8411C44.439 28.619 43.69 27.345 43.0952 26.0939L49.0864 31.1063C49.2018 31.8249 50.1173 33.4974 51.3747 33.4974C52.6321 33.4974 53.5478 31.8249 53.663 31.1063L59.6791 26.0732C59.0867 27.3328 58.3387 28.615 57.4646 29.8427Z" fill="black"/>
<path d="M47.8766 25.4742C47.7463 25.3426 47.5657 25.2684 47.3822 25.2684C47.1974 25.2684 47.0168 25.3426 46.8865 25.4742C46.7562 25.6031 46.6807 25.7837 46.6807 25.9686C46.6807 26.1534 46.7564 26.3341 46.8865 26.4643C47.0168 26.5946 47.1974 26.6687 47.3822 26.6687C47.5657 26.6687 47.7465 26.5944 47.8766 26.4643C48.0068 26.3341 48.0824 26.1534 48.0824 25.9686C48.0825 25.7837 48.0068 25.6031 47.8766 25.4742Z" fill="black"/>
<path d="M55.4754 25.2684C55.2906 25.2684 55.1113 25.3426 54.9797 25.4728C54.8494 25.6031 54.7753 25.7837 54.7753 25.9686C54.7753 26.1534 54.8496 26.3327 54.9797 26.4643C55.11 26.5946 55.2906 26.6687 55.4754 26.6687C55.6603 26.6687 55.8409 26.5944 55.9712 26.4643C56.1014 26.3327 56.1756 26.1534 56.1756 25.9686C56.1756 25.7837 56.1013 25.6045 55.9712 25.4728C55.8396 25.3426 55.6603 25.2684 55.4754 25.2684Z" fill="black"/>
<path d="M30.3493 22.0437C26.3149 22.0437 23.0437 25.3149 23.0437 29.3493C23.0437 33.3836 26.3149 36.6548 30.3493 36.6548C34.3836 36.6548 37.6548 33.3836 37.6548 29.3493C37.6548 25.3149 34.3836 22.0437 30.3493 22.0437ZM30.3493 35.4155C26.9998 35.4155 24.283 32.6987 24.283 29.3493C24.283 25.9998 26.9998 23.283 30.3493 23.283C33.6987 23.283 36.4155 25.9998 36.4155 29.3493C36.4155 32.6987 33.6987 35.4155 30.3493 35.4155ZM31.1271 28.9709L30.7129 28.8747V26.6847C31.3326 26.7695 31.7158 27.1576 31.781 27.6338C31.7892 27.699 31.8446 27.7463 31.9098 27.7463H32.642C32.7187 27.7463 32.779 27.6794 32.7725 27.6028C32.673 26.5868 31.8365 25.9346 30.7194 25.822V25.2888C30.7194 25.2171 30.6607 25.1583 30.589 25.1583H30.1307C30.059 25.1583 30.0003 25.2171 30.0003 25.2888V25.8269C28.8458 25.9395 27.9423 26.5771 27.9423 27.7675C27.9423 28.8698 28.7544 29.4014 29.6073 29.6053L30.0101 29.708V32.035C29.2893 31.9388 28.8849 31.554 28.8017 31.0354C28.7919 30.9734 28.7365 30.9278 28.6729 30.9278H27.9195C27.8429 30.9278 27.7825 30.993 27.7891 31.0697C27.8624 31.9665 28.5424 32.7917 29.9938 32.8977V33.4097C29.9938 33.4815 30.0525 33.5402 30.1242 33.5402H30.5873C30.6591 33.5402 30.7178 33.4815 30.7178 33.4081L30.7145 32.8912C31.9914 32.7786 32.9046 32.0954 32.9046 30.8691C32.9029 29.7374 32.1838 29.2319 31.1271 28.9709ZM30.0084 28.7068C29.9171 28.6807 29.8405 28.6562 29.7638 28.6252C29.2127 28.4263 28.9566 28.105 28.9566 27.6908C28.9566 27.0989 29.4051 26.7613 30.0084 26.6847V28.7068ZM30.7129 32.0399V29.8597C30.7635 29.8743 30.8091 29.8858 30.8564 29.8955C31.6277 30.1304 31.887 30.4565 31.887 30.9571C31.887 31.5947 31.4076 31.978 30.7129 32.0399Z" fill="black"/>
</g>
<defs>
<clipPath id="clip0">
<rect width="64" height="64" fill="white"/>
</clipPath>
</defs>
</svg>
